<svg width="25" height="23" viewBox="0 0 25 23" fill="none" xmlns="http://www.w3.org/2000/svg">
<path d="M14.189 7.66667C13.2036 7.66667 8.97314 7.76154 6.25 11.7851V7.66667C6.25 5.12996 4.14746 3.06667 1.5625 3.06667C0.699707 3.06667 0 3.75331 0 4.6C0 5.44669 0.699707 6.13333 1.5625 6.13333C2.42383 6.13333 3.125 6.82142 3.125 7.66667V19.9333C3.125 21.6248 4.52637 23 6.25 23H14.8438C15.2754 23 15.625 22.6569 15.625 22.2333V21.4667C15.625 20.62 14.9253 19.9333 14.0625 19.9333H12.5L18.75 15.3333V22.2333C18.75 22.6569 19.0996 23 19.5312 23H21.0938C21.5254 23 21.875 22.6569 21.875 22.2333V12.3558C21.3726 12.4837 20.855 12.5733 20.3125 12.5733C17.2944 12.5733 14.7695 10.4626 14.189 7.66667ZM21.875 3.06667H18.75L15.625 0V6.44C15.625 8.98054 17.7236 11.04 20.3125 11.04C22.9014 11.04 25 8.98054 25 6.44V0L21.875 3.06667ZM18.3594 6.9C17.9277 6.9 17.5781 6.55692 17.5781 6.13333C17.5781 5.70975 17.9277 5.36667 18.3594 5.36667C18.791 5.36667 19.1406 5.70975 19.1406 6.13333C19.1406 6.55692 18.791 6.9 18.3594 6.9ZM22.2656 6.9C21.834 6.9 21.4844 6.55692 21.4844 6.13333C21.4844 5.70975 21.834 5.36667 22.2656 5.36667C22.6973 5.36667 23.0469 5.70975 23.0469 6.13333C23.0469 6.55692 22.6973 6.9 22.2656 6.9Z" fill="black"/>
</svg>
